<?xml version="1.0" encoding="UTF-8"?>
<svg data-name="Layer 1" version="1.1" viewBox="0 0 393.26 269.27" xmlns="http://www.w3.org/2000/svg" xmlns:cc="http://creativecommons.org/ns#" xmlns:dc="http://purl.org/dc/elements/1.1/" xmlns:rdf="http://www.w3.org/1999/02/22-rdf-syntax-ns#" xmlns:xlink="http://www.w3.org/1999/xlink">
 <metadata>
  <rdf:RDF>
   <cc:Work rdf:about="">
    <dc:format>image/svg+xml</dc:format>
    <dc:type rdf:resource="http://purl.org/dc/dcmitype/StillImage"/>
    <dc:title>Cover</dc:title>
   </cc:Work>
  </rdf:RDF>
 </metadata>
 <defs>
  <style>.cls-1{fill:#fff;}.cls-2{font-size:16px;font-family:LouisGeorgeCafe, Louis George Café;}.cls-2,.cls-3{fill:#383838;}.cls-4{fill:url(#linear-gradient);}.cls-5{fill:url(#linear-gradient-2);}.cls-6{fill:url(#linear-gradient-3);}.cls-7{fill:url(#linear-gradient-4);}.cls-8{fill:url(#linear-gradient-5);}.cls-9{fill:url(#linear-gradient-6);}.cls-10{fill:url(#linear-gradient-7);}.cls-11{fill:url(#linear-gradient-8);}.cls-12{fill:url(#linear-gradient-9);}.cls-13{fill:url(#linear-gradient-10);}.cls-14{fill:url(#linear-gradient-11);}.cls-15{fill:url(#linear-gradient-12);}.cls-16{fill:url(#linear-gradient-13);}.cls-17{fill:url(#linear-gradient-14);}.cls-18{fill:url(#linear-gradient-15);}.cls-19{fill:url(#linear-gradient-16);}.cls-20{fill:url(#linear-gradient-17);}.cls-21{fill:url(#linear-gradient-18);}.cls-22{fill:url(#linear-gradient-19);}.cls-23{fill:url(#linear-gradient-20);}.cls-24{fill:url(#linear-gradient-21);}.cls-25{fill:url(#linear-gradient-22);}.cls-26{fill:url(#linear-gradient-23);}.cls-27{fill:url(#linear-gradient-24);}.cls-28{fill:url(#linear-gradient-25);}.cls-29{fill:url(#linear-gradient-26);}.cls-30{fill:url(#linear-gradient-27);}.cls-31{fill:url(#linear-gradient-28);}.cls-32{fill:url(#linear-gradient-29);}.cls-33{fill:url(#linear-gradient-30);}.cls-34{fill:url(#linear-gradient-31);}.cls-35{fill:url(#linear-gradient-32);}.cls-36{fill:url(#linear-gradient-33);}.cls-37{fill:url(#linear-gradient-34);}.cls-38{fill:url(#linear-gradient-35);}.cls-39{fill:url(#linear-gradient-36);}.cls-40{fill:url(#linear-gradient-37);}.cls-41{fill:url(#linear-gradient-38);}.cls-42{fill:url(#linear-gradient-39);}.cls-43{fill:url(#linear-gradient-40);}.cls-44{fill:url(#linear-gradient-41);}.cls-45{fill:url(#linear-gradient-42);}.cls-46{fill:url(#linear-gradient-43);}</style>
  <linearGradient id="linear-gradient" x1="112.68" x2="539.42" y1="296.85" y2="433.22" gradientUnits="userSpaceOnUse">
   <stop stop-color="#ddd164" offset="0"/>
   <stop stop-color="#dcd164" offset="0"/>
   <stop stop-color="#bbd173" offset=".03"/>
   <stop stop-color="#a1d07f" offset=".05"/>
   <stop stop-color="#8fd087" offset=".08"/>
   <stop stop-color="#84d08c" offset=".11"/>
   <stop stop-color="#80d08e" offset=".14"/>
   <stop stop-color="#4ccfa6" offset=".29"/>
   <stop stop-color="#4bc4aa" offset=".36"/>
   <stop stop-color="#48b2b1" offset=".44"/>
   <stop stop-color="#47abb3" offset=".5"/>
   <stop stop-color="#4696b8" offset=".59"/>
   <stop stop-color="#4480bd" offset=".67"/>
   <stop stop-color="#4d7dbd" offset=".7"/>
   <stop stop-color="#6575bd" offset=".75"/>
   <stop stop-color="#8c67bd" offset=".81"/>
   <stop stop-color="#bf56bd" offset=".88"/>
  </linearGradient>
  <linearGradient id="linear-gradient-2" x1="43.43" x2="557.57" y1="483.21" y2="588.12" gradientUnits="userSpaceOnUse">
   <stop stop-color="#ddd164" offset="0"/>
   <stop stop-color="#c0d171" offset=".03"/>
   <stop stop-color="#9dd081" offset=".08"/>
   <stop stop-color="#88d08a" offset=".11"/>
   <stop stop-color="#80d08e" offset=".14"/>
   <stop stop-color="#4ccfa6" offset=".3"/>
   <stop stop-color="#4bc4aa" offset=".35"/>
   <stop stop-color="#48b2b1" offset=".4"/>
   <stop stop-color="#47abb3" offset=".49"/>
   <stop stop-color="#4696b8" offset=".63"/>
   <stop stop-color="#4480bd" offset=".75"/>
   <stop stop-color="#bf56bd" offset=".96"/>
  </linearGradient>
  <linearGradient id="linear-gradient-3" x1="45.61" x2="559.71" y1="472.61" y2="577.51" xlink:href="#linear-gradient-2"/>
  <linearGradient id="linear-gradient-4" x1="48.21" x2="562.31" y1="459.84" y2="564.74" xlink:href="#linear-gradient-2"/>
  <linearGradient id="linear-gradient-5" x1="50.25" x2="564.35" y1="449.86" y2="554.76" xlink:href="#linear-gradient-2"/>
  <linearGradient id="linear-gradient-6" x1="53.09" x2="567.23" y1="435.83" y2="540.74" xlink:href="#linear-gradient-2"/>
  <linearGradient id="linear-gradient-7" x1="55.29" x2="569.39" y1="425.2" y2="530.1" xlink:href="#linear-gradient-2"/>
  <linearGradient id="linear-gradient-8" x1="57.7" x2="571.76" y1="413.53" y2="518.42" xlink:href="#linear-gradient-2"/>
  <linearGradient id="linear-gradient-9" x1="32.14" x2="548.14" y1="528.11" y2="633.39" xlink:href="#linear-gradient-2"/>
  <linearGradient id="linear-gradient-10" x1="32.84" x2="549.08" y1="524.48" y2="629.82" xlink:href="#linear-gradient-2"/>
  <linearGradient id="linear-gradient-11" x1="33.07" x2="548.84" y1="523.85" y2="629.09" xlink:href="#linear-gradient-2"/>
  <linearGradient id="linear-gradient-12" x1="34.37" x2="550.68" y1="516.84" y2="622.19" xlink:href="#linear-gradient-2"/>
  <linearGradient id="linear-gradient-13" x1="34.98" x2="551.5" y1="513.52" y2="618.92" xlink:href="#linear-gradient-2"/>
  <linearGradient id="linear-gradient-14" x1="36.48" x2="551.87" y1="507.87" y2="613.03" xlink:href="#linear-gradient-2"/>
  <linearGradient id="linear-gradient-15" x1="36.22" x2="552.22" y1="508.22" y2="613.51" xlink:href="#linear-gradient-2"/>
  <linearGradient id="linear-gradient-16" x1="36.84" x2="553.01" y1="504.89" y2="610.21" xlink:href="#linear-gradient-2"/>
  <linearGradient id="linear-gradient-17" x1="37.74" x2="553.81" y1="500.66" y2="605.96" xlink:href="#linear-gradient-2"/>
  <linearGradient id="linear-gradient-18" x1="38.47" x2="554.47" y1="497.23" y2="602.52" xlink:href="#linear-gradient-2"/>
  <linearGradient id="linear-gradient-19" x1="39.75" x2="555.84" y1="490.79" y2="596.1" xlink:href="#linear-gradient-2"/>
  <linearGradient id="linear-gradient-20" x1="40.8" x2="556.88" y1="485.65" y2="590.95" xlink:href="#linear-gradient-2"/>
  <linearGradient id="linear-gradient-21" x1="41.61" x2="557.48" y1="482.31" y2="587.57" xlink:href="#linear-gradient-2"/>
  <linearGradient id="linear-gradient-22" x1="42.09" x2="558.26" y1="479.03" y2="584.36" xlink:href="#linear-gradient-2"/>
  <linearGradient id="linear-gradient-23" x1="43.86" x2="560.08" y1="470.2" y2="575.53" xlink:href="#linear-gradient-2"/>
  <linearGradient id="linear-gradient-24" x1="43.84" x2="559.92" y1="470.78" y2="576.08" xlink:href="#linear-gradient-2"/>
  <linearGradient id="linear-gradient-25" x1="44.67" x2="560.54" y1="467.45" y2="572.71" xlink:href="#linear-gradient-2"/>
  <linearGradient id="linear-gradient-26" x1="46.46" x2="562.14" y1="459.51" y2="564.73" xlink:href="#linear-gradient-2"/>
  <linearGradient id="linear-gradient-27" x1="46.12" x2="562.12" y1="459.95" y2="565.24" xlink:href="#linear-gradient-2"/>
  <linearGradient id="linear-gradient-28" x1="46.68" x2="562.86" y1="456.42" y2="561.75" xlink:href="#linear-gradient-2"/>
  <linearGradient id="linear-gradient-29" x1="47.74" x2="563.46" y1="453.26" y2="558.49" xlink:href="#linear-gradient-2"/>
  <linearGradient id="linear-gradient-30" x1="195.49" x2="201.61" y1="291.1" y2="293.05" xlink:href="#linear-gradient"/>
  <linearGradient id="linear-gradient-31" x1="196.89" x2="207.79" y1="291.67" y2="295.15" xlink:href="#linear-gradient"/>
  <linearGradient id="linear-gradient-32" x1="195.99" x2="211.01" y1="289.72" y2="294.52" xlink:href="#linear-gradient"/>
  <linearGradient id="linear-gradient-33" x1="199.01" x2="208.22" y1="290.53" y2="293.47" xlink:href="#linear-gradient"/>
  <linearGradient id="linear-gradient-34" x1="200.35" x2="209.89" y1="291.78" y2="294.83" xlink:href="#linear-gradient"/>
  <linearGradient id="linear-gradient-35" x1="200.22" x2="215.03" y1="289.96" y2="294.69" xlink:href="#linear-gradient"/>
  <linearGradient id="linear-gradient-36" x1="118.89" x2="545.66" y1="277.43" y2="413.8" xlink:href="#linear-gradient"/>
  <linearGradient id="linear-gradient-37" x1="136.43" x2="170.78" y1="344.34" y2="355.31" xlink:href="#linear-gradient"/>
  <linearGradient id="linear-gradient-38" x1="103.08" x2="529.83" y1="326.91" y2="463.28" xlink:href="#linear-gradient"/>
  <linearGradient id="linear-gradient-39" x1="112.25" x2="538.98" y1="298.22" y2="434.58" xlink:href="#linear-gradient"/>
  <linearGradient id="linear-gradient-40" x1="92.16" x2="518.94" y1="361.09" y2="497.47" xlink:href="#linear-gradient"/>
  <linearGradient id="linear-gradient-41" x1="94.93" x2="521.5" y1="352.48" y2="488.79" xlink:href="#linear-gradient"/>
  <linearGradient id="linear-gradient-42" x1="96.22" x2="509.58" y1="386.12" y2="477.89" xlink:href="#linear-gradient"/>
  <linearGradient id="linear-gradient-43" x1="90.33" x2="503.68" y1="412.62" y2="504.38" xlink:href="#linear-gradient"/>
  <linearGradient id="linearGradient1038" x1="112.68" x2="539.42" y1="296.85" y2="433.22" gradientUnits="userSpaceOnUse" xlink:href="#linear-gradient"/>
  <linearGradient id="linearGradient1040" x1="43.43" x2="557.57" y1="483.21" y2="588.12" gradientUnits="userSpaceOnUse" xlink:href="#linear-gradient-2"/>
 </defs>
 <title>Cover</title>
 <g transform="translate(-101.01 -286.29)" data-name="pass 360">
  <path class="cls-4" d="m202.76 372a0.12 0.12 0 0 0-0.08 0 4.68 4.68 0 0 1-4.68-4.67 0.11 0.11 0 1 0-0.22 0 4.91 4.91 0 0 0 4.9 4.9 0.11 0.11 0 0 0 0.11-0.11 0.11 0.11 0 0 0-0.03-0.12zm3-8.49a4.87 4.87 0 0 0-3.1-1.12 0.1 0.1 0 0 0-0.11 0.11 0.1 0.1 0 0 0 0.1 0.11 4.64 4.64 0 0 1 3 1.07 0.13 0.13 0 0 0 0.08 0 0.09 0.09 0 0 0 0.08 0 0.11 0.11 0 0 0 0-0.08 0.12 0.12 0 0 0-0.02-0.06zm0 0a4.87 4.87 0 0 0-3.1-1.12 0.1 0.1 0 0 0-0.11 0.11 0.1 0.1 0 0 0 0.1 0.11 4.64 4.64 0 0 1 3 1.07 0.13 0.13 0 0 0 0.08 0 0.09 0.09 0 0 0 0.08 0 0.11 0.11 0 0 0 0-0.08 0.12 0.12 0 0 0-0.02-0.06zm-3 8.49a0.12 0.12 0 0 0-0.08 0 4.68 4.68 0 0 1-4.68-4.67 0.11 0.11 0 1 0-0.22 0 4.91 4.91 0 0 0 4.9 4.9 0.11 0.11 0 0 0 0.11-0.11 0.11 0.11 0 0 0-0.03-0.12zm0 0a0.12 0.12 0 0 0-0.08 0 4.68 4.68 0 0 1-4.68-4.67 0.11 0.11 0 1 0-0.22 0 4.91 4.91 0 0 0 4.9 4.9 0.11 0.11 0 0 0 0.11-0.11 0.11 0.11 0 0 0-0.03-0.12zm3-8.49a4.87 4.87 0 0 0-3.1-1.12 0.1 0.1 0 0 0-0.11 0.11 0.1 0.1 0 0 0 0.1 0.11 4.64 4.64 0 0 1 3 1.07 0.13 0.13 0 0 0 0.08 0 0.09 0.09 0 0 0 0.08 0 0.11 0.11 0 0 0 0-0.08 0.12 0.12 0 0 0-0.02-0.06zm0 0a4.87 4.87 0 0 0-3.1-1.12 0.1 0.1 0 0 0-0.11 0.11 0.1 0.1 0 0 0 0.1 0.11 4.64 4.64 0 0 1 3 1.07 0.13 0.13 0 0 0 0.08 0 0.09 0.09 0 0 0 0.08 0 0.11 0.11 0 0 0 0-0.08 0.12 0.12 0 0 0-0.02-0.06zm-3 8.49a0.12 0.12 0 0 0-0.08 0 4.68 4.68 0 0 1-4.68-4.67 0.11 0.11 0 1 0-0.22 0 4.91 4.91 0 0 0 4.9 4.9 0.11 0.11 0 0 0 0.11-0.11 0.11 0.11 0 0 0-0.03-0.12zm0 0a0.12 0.12 0 0 0-0.08 0 4.68 4.68 0 0 1-4.68-4.67 0.11 0.11 0 1 0-0.22 0 4.91 4.91 0 0 0 4.9 4.9 0.11 0.11 0 0 0 0.11-0.11 0.11 0.11 0 0 0-0.03-0.12zm3-8.49a4.87 4.87 0 0 0-3.1-1.12 0.1 0.1 0 0 0-0.11 0.11 0.1 0.1 0 0 0 0.1 0.11 4.64 4.64 0 0 1 3 1.07 0.13 0.13 0 0 0 0.08 0 0.09 0.09 0 0 0 0.08 0 0.11 0.11 0 0 0 0-0.08 0.12 0.12 0 0 0-0.02-0.06zm0 0a4.87 4.87 0 0 0-3.1-1.12 0.1 0.1 0 0 0-0.11 0.11 0.1 0.1 0 0 0 0.1 0.11 4.64 4.64 0 0 1 3 1.07 0.13 0.13 0 0 0 0.08 0 0.09 0.09 0 0 0 0.08 0 0.11 0.11 0 0 0 0-0.08 0.12 0.12 0 0 0-0.02-0.06zm-3.08 8.49a4.68 4.68 0 0 1-4.68-4.67 0.11 0.11 0 1 0-0.22 0 4.91 4.91 0 0 0 4.9 4.9 0.11 0.11 0 0 0 0.11-0.11 0.11 0.11 0 0 0 0-0.08 0.12 0.12 0 0 0-0.11-0.04zm230.23-37v-48.7h-63.32v16.49h-4.59v-16.49h-136.34v10.14h16.8v12.49h-26v23.85h-30v23.9h-14.12v-10.36h-13v32.25h15.41v11.43h13v-11.43h28.72v20.66h-25.06v22.92h25.05v21.7h145.54v-16.49h4.55v16.49h63.32v-48.72c-14.87-3.62-25.87-15.7-25.87-30.06s11-26.43 25.91-30.07zm-239.59 23.68a0.36 0.36 0 0 1 0.26-0.11 0.37 0.37 0 0 1 0.37 0.37v3.43a0.38 0.38 0 0 1-0.37 0.37 0.38 0.38 0 0 1-0.37-0.37v-3.43a0.36 0.36 0 0 1 0.11-0.26zm-1.12 0a0.36 0.36 0 0 1 0.26-0.11 0.37 0.37 0 0 1 0.37 0.37v3.43a0.38 0.38 0 0 1-0.37 0.37 0.38 0.38 0 0 1-0.37-0.37v-3.43a0.36 0.36 0 0 1 0.11-0.26zm1.38 17a0.8 0.8 0 0 1-0.61 0.29 0.78 0.78 0 0 1-0.6-0.29c-1.21-1.38-0.39-8.61-0.38-8.68a4.79 4.79 0 0 0 0-1.81 1.79 1.79 0 0 0-0.14-0.18 3.68 3.68 0 0 1-0.88-2.6v-3.44a0.38 0.38 0 0 1 0.37-0.37 0.37 0.37 0 0 1 0.37 0.37v3.43a3 3 0 0 0 0.71 2.14 1.34 1.34 0 0 0 1.12-0.05 3.16 3.16 0 0 0 0.79-2.09v-3.43a0.38 0.38 0 0 1 0.37-0.37 0.37 0.37 0 0 1 0.37 0.37v3.43a3.86 3.86 0 0 1-1 2.54 2.48 2.48 0 0 0-0.18 0.25 4.69 4.69 0 0 0 0 1.79s0.21 1.83 0.26 3.85c0.15 2.62-0.06 4.26-0.57 4.83zm9.1-0.73a7.61 7.61 0 1 1 7.61-7.61 7.62 7.62 0 0 1-7.61 7.59zm11.25-2.52a13.64 13.64 0 0 1-0.18 2.45c-0.16 0.74-0.49 1.09-1 1.09a0.91 0.91 0 0 1-0.71-0.33c-0.82-0.93-0.57-3.79-0.18-6.74v-0.34a2.06 2.06 0 0 0 0-0.21h-0.06c-0.64 0-0.83-0.32-0.89-0.59a17.32 17.32 0 0 1 0.48-7c0.66-1.69 1.63-2.46 2.1-2.46h0.08a0.41 0.41 0 0 1 0.33 0.4v4.21 5.13c0.03 0.08 0.1 2.68 0.03 4.37zm5.53-15.73h-17v-12.46h17zm28.42 23.16h-14.4v-12.75h14.4zm121.71 43.84h-4.59v-16.5h4.55zm0-20.15h-4.59v-16.49h4.55zm0-20.15h-4.59v-16.5h4.55zm0-20.16h-4.59v-16.49h4.55zm0-20.15h-4.59v-16.49h4.55zm0-20.15h-4.59v-16.5h4.55zm-166.9 39.48a0.1 0.1 0 0 0-0.11 0.11 0.1 0.1 0 0 0 0.1 0.11 4.64 4.64 0 0 1 3 1.07 0.13 0.13 0 0 0 0.08 0 0.09 0.09 0 0 0 0.08 0 0.11 0.11 0 0 0 0-0.08 0.12 0.12 0 0 0-0.05-0.07 4.87 4.87 0 0 0-3.1-1.14zm0 9.57a4.68 4.68 0 0 1-4.68-4.67 0.11 0.11 0 1 0-0.22 0 4.91 4.91 0 0 0 4.9 4.9 0.11 0.11 0 0 0 0.11-0.11 0.11 0.11 0 0 0 0-0.08 0.12 0.12 0 0 0-0.12-0.03zm0.08 0a0.12 0.12 0 0 0-0.08 0 4.68 4.68 0 0 1-4.68-4.67 0.11 0.11 0 1 0-0.22 0 4.91 4.91 0 0 0 4.9 4.9 0.11 0.11 0 0 0 0.11-0.11 0.11 0.11 0 0 0-0.04-0.11zm3-8.49a4.87 4.87 0 0 0-3.1-1.12 0.1 0.1 0 0 0-0.11 0.11 0.1 0.1 0 0 0 0.1 0.11 4.64 4.64 0 0 1 3 1.07 0.13 0.13 0 0 0 0.08 0 0.09 0.09 0 0 0 0.08 0 0.11 0.11 0 0 0 0-0.08 0.12 0.12 0 0 0-0.03-0.05zm0 0a4.87 4.87 0 0 0-3.1-1.12 0.1 0.1 0 0 0-0.11 0.11 0.1 0.1 0 0 0 0.1 0.11 4.64 4.64 0 0 1 3 1.07 0.13 0.13 0 0 0 0.08 0 0.09 0.09 0 0 0 0.08 0 0.11 0.11 0 0 0 0-0.08 0.12 0.12 0 0 0-0.03-0.05zm-3 8.49a0.12 0.12 0 0 0-0.08 0 4.68 4.68 0 0 1-4.68-4.67 0.11 0.11 0 1 0-0.22 0 4.91 4.91 0 0 0 4.9 4.9 0.11 0.11 0 0 0 0.11-0.11 0.11 0.11 0 0 0-0.04-0.11zm0 0a0.12 0.12 0 0 0-0.08 0 4.68 4.68 0 0 1-4.68-4.67 0.11 0.11 0 1 0-0.22 0 4.91 4.91 0 0 0 4.9 4.9 0.11 0.11 0 0 0 0.11-0.11 0.11 0.11 0 0 0-0.04-0.11zm3-8.49a4.87 4.87 0 0 0-3.1-1.12 0.1 0.1 0 0 0-0.11 0.11 0.1 0.1 0 0 0 0.1 0.11 4.64 4.64 0 0 1 3 1.07 0.13 0.13 0 0 0 0.08 0 0.09 0.09 0 0 0 0.08 0 0.11 0.11 0 0 0 0-0.08 0.12 0.12 0 0 0-0.03-0.05zm0 0a4.87 4.87 0 0 0-3.1-1.12 0.1 0.1 0 0 0-0.11 0.11 0.1 0.1 0 0 0 0.1 0.11 4.64 4.64 0 0 1 3 1.07 0.13 0.13 0 0 0 0.08 0 0.09 0.09 0 0 0 0.08 0 0.11 0.11 0 0 0 0-0.08 0.12 0.12 0 0 0-0.03-0.05zm-3 8.49a0.12 0.12 0 0 0-0.08 0 4.68 4.68 0 0 1-4.68-4.67 0.11 0.11 0 1 0-0.22 0 4.91 4.91 0 0 0 4.9 4.9 0.11 0.11 0 0 0 0.11-0.11 0.11 0.11 0 0 0-0.04-0.11zm0 0a0.12 0.12 0 0 0-0.08 0 4.68 4.68 0 0 1-4.68-4.67 0.11 0.11 0 1 0-0.22 0 4.91 4.91 0 0 0 4.9 4.9 0.11 0.11 0 0 0 0.11-0.11 0.11 0.11 0 0 0-0.04-0.11zm3-8.49a4.87 4.87 0 0 0-3.1-1.12 0.1 0.1 0 0 0-0.11 0.11 0.1 0.1 0 0 0 0.1 0.11 4.64 4.64 0 0 1 3 1.07 0.13 0.13 0 0 0 0.08 0 0.09 0.09 0 0 0 0.08 0 0.11 0.11 0 0 0 0-0.08 0.12 0.12 0 0 0-0.03-0.05zm0 0a4.87 4.87 0 0 0-3.1-1.12 0.1 0.1 0 0 0-0.11 0.11 0.1 0.1 0 0 0 0.1 0.11 4.64 4.64 0 0 1 3 1.07 0.13 0.13 0 0 0 0.08 0 0.09 0.09 0 0 0 0.08 0 0.11 0.11 0 0 0 0-0.08 0.12 0.12 0 0 0-0.03-0.05zm-3 8.49a0.12 0.12 0 0 0-0.08 0 4.68 4.68 0 0 1-4.68-4.67 0.11 0.11 0 1 0-0.22 0 4.91 4.91 0 0 0 4.9 4.9 0.11 0.11 0 0 0 0.11-0.11 0.11 0.11 0 0 0-0.04-0.11z" fill="url(#linearGradient1038)"/>
  <path class="cls-5" d="m128.46 478.51a15.62 15.62 0 0 0-11.86-5.44h-14.87l-0.1 0.1v47.25l0.1 0.09h4.34l0.1-0.09v-16.42h10.5a15.4 15.4 0 0 0 10.92-4.57 15.1 15.1 0 0 0 4.5-10.66v-0.49a15.47 15.47 0 0 0-3.63-9.77zm-0.9 10.21a10.81 10.81 0 0 1-11 10.73h-10.39v-21.84h10.4a11 11 0 0 1 6.74 2.3 10.58 10.58 0 0 1 4.25 8.42z" fill="url(#linearGradient1040)"/>
  <path class="cls-6" d="m193.78 519.41-17.08-43.88a11.49 11.49 0 0 0-1-2.46h-4.7l-18.51 47.41h4.77a20.82 20.82 0 0 0 1-2.43q3.27-8.49 3.43-8.71h23.14a36.59 36.59 0 0 1 1.59 3.79c1.79 4.75 2.76 7.2 2.89 7.35h4.92zm-30.33-14.62 9.82-25.24 9.85 25.24z" fill="url(#linear-gradient-3)"/>
  <path class="cls-7" d="m243.63 507.09v-0.09a12.74 12.74 0 0 0-1.55-6 10 10 0 0 0-0.91-1.42 11.6 11.6 0 0 0-1.46-1.59 13.52 13.52 0 0 0-5.6-3 48.9 48.9 0 0 1-9.27-2.88 10.47 10.47 0 0 1-2.92-1.91 5.58 5.58 0 0 1-1.65-4.31 9 9 0 0 1 1.39-4.86 9 9 0 0 1 8-4h0.07a9.39 9.39 0 0 1 7.06 3.15 9.81 9.81 0 0 1 1.69 2.39l4.11-1.87a7.64 7.64 0 0 0-0.71-1.29 17.21 17.21 0 0 0-1.78-2.41c-0.58-0.58-1.06-1-1.43-1.32a17.28 17.28 0 0 0-2.2-1.52 13.78 13.78 0 0 0-6.54-1.72h-0.52a15.94 15.94 0 0 0-4.73 0.77 13.51 13.51 0 0 0-3 1.49 12.41 12.41 0 0 0-2 1.62 15.46 15.46 0 0 0-1.43 1.69 13.35 13.35 0 0 0-2.43 7.65v0.34q0 6.45 6.26 9.75a37.78 37.78 0 0 0 8.2 2.92q2.68 0.64 3.33 0.87a5.84 5.84 0 0 1 1.36 0.59 7.48 7.48 0 0 1 1.92 1.33 7.94 7.94 0 0 1 2.3 5.76v0.1a9.93 9.93 0 0 1-0.46 2.88 8.24 8.24 0 0 1-3.3 4.61 10.44 10.44 0 0 1-5.9 1.85h-0.16a10.29 10.29 0 0 1-5.12-1.37 9.46 9.46 0 0 1-2.27-1.71 13.42 13.42 0 0 1-1.43-1.66 16 16 0 0 1-1.62-2.91c-2.7 1.12-4.09 1.7-4.18 1.75s0.2 0.47 0.58 1.29a22 22 0 0 0 1.72 2.82 17 17 0 0 0 3.24 3.27 17.84 17.84 0 0 0 2.3 1.46 15.18 15.18 0 0 0 6.55 1.59h0.55a15.39 15.39 0 0 0 5.28-1 13.23 13.23 0 0 0 7-6 14.13 14.13 0 0 0 1.78-6.74v-0.23z" fill="url(#linear-gradient-4)"/>
  <path class="cls-8" d="m294.59 507.09v-0.09a12.74 12.74 0 0 0-1.55-6 10 10 0 0 0-0.91-1.42 11.6 11.6 0 0 0-1.46-1.59 13.52 13.52 0 0 0-5.6-3 48.9 48.9 0 0 1-9.27-2.88 10.32 10.32 0 0 1-2.92-1.91 5.58 5.58 0 0 1-1.65-4.31 9 9 0 0 1 1.39-4.86 9 9 0 0 1 8-4h0.07a9.41 9.41 0 0 1 7.06 3.15 10.09 10.09 0 0 1 1.69 2.39l4.11-1.87a7.64 7.64 0 0 0-0.71-1.29 18.13 18.13 0 0 0-1.75-2.31c-0.58-0.58-1.06-1-1.43-1.32a18 18 0 0 0-2.2-1.52 13.79 13.79 0 0 0-6.55-1.72h-0.52a15.88 15.88 0 0 0-4.72 0.77 13.3 13.3 0 0 0-3 1.49 12.42 12.42 0 0 0-2.05 1.62 16.3 16.3 0 0 0-1.42 1.69 13.35 13.35 0 0 0-2.43 7.65v0.24q0 6.45 6.26 9.75a37.66 37.66 0 0 0 8.19 2.92c1.8 0.43 2.91 0.72 3.34 0.87a6 6 0 0 1 1.36 0.59 7.3 7.3 0 0 1 1.91 1.33 7.9 7.9 0 0 1 2.3 5.76v0.1a9.91 9.91 0 0 1-0.45 2.88 8.88 8.88 0 0 1-1.85 3.34 8.62 8.62 0 0 1-1.45 1.27 10.44 10.44 0 0 1-5.9 1.85h-0.17a10.28 10.28 0 0 1-5.11-1.37 9.46 9.46 0 0 1-2.27-1.71 12.58 12.58 0 0 1-1.43-1.66 16 16 0 0 1-1.7-2.92c-2.7 1.12-4.09 1.7-4.18 1.75s0.2 0.47 0.59 1.29a20.81 20.81 0 0 0 1.71 2.82 16.37 16.37 0 0 0 5.54 4.73 15.18 15.18 0 0 0 6.55 1.59h0.55a15.43 15.43 0 0 0 5.28-1 13.27 13.27 0 0 0 7-6 14.13 14.13 0 0 0 1.78-6.74v-0.23z" fill="url(#linear-gradient-5)"/>
  <path class="cls-9" d="m371 500.23c-0.36-0.45-0.89-1-1.58-1.72a18.28 18.28 0 0 0-1.89-1.48 4.54 4.54 0 0 0 0.47-0.33 13.55 13.55 0 0 0 1.78-1.76 12.7 12.7 0 0 0 3-8.21v-0.13a12.71 12.71 0 0 0-1.41-5.79 13 13 0 0 0-1.45-2.22 10.8 10.8 0 0 0-1.48-1.55 12.62 12.62 0 0 0-15.38-1 15.23 15.23 0 0 0-1.65 1.31 16.17 16.17 0 0 0-1.48 1.68 12.86 12.86 0 0 0-2.46 7.54v0.43h4.68v-0.1a8.07 8.07 0 0 1 2.89-6.36 7.62 7.62 0 0 1 5-1.85h0.1a7.71 7.71 0 0 1 4.54 1.47 7.62 7.62 0 0 1 1.32 1.15 8.22 8.22 0 0 1 2 5.42 7.91 7.91 0 0 1-0.81 3.53 8.37 8.37 0 0 1-1.24 1.92 8.9 8.9 0 0 1-1.32 1.14 8.46 8.46 0 0 1-2 1 8.76 8.76 0 0 1-2 0.4h-4.21v4.65h3.43a9.52 9.52 0 0 1 4.25 1 13.94 13.94 0 0 1 1.54 1 9.69 9.69 0 0 1 1.48 1.45 9.19 9.19 0 0 1 2.12 5.89 9.3 9.3 0 0 1-2 5.72 9.63 9.63 0 0 1-7.54 3.67 9.57 9.57 0 0 1-7.34-3.44 9.16 9.16 0 0 1-2.15-5.88h-4.64v0.2a14.17 14.17 0 0 0 0.85 4.62 17.34 17.34 0 0 0 1.07 2.25 19.41 19.41 0 0 0 1.22 1.75 18.72 18.72 0 0 0 1.84 1.88 19.16 19.16 0 0 0 2.46 1.69 14.25 14.25 0 0 0 6.56 1.68h0.44a14 14 0 0 0 7.14-2 14.78 14.78 0 0 0 2.22-1.65c0.65-0.6 1.14-1.1 1.48-1.48a14.11 14.11 0 0 0 0.27-17.53z" fill="url(#linear-gradient-6)"/>
  <path class="cls-10" d="m429.65 498.88a21 21 0 0 0-1.41-2.29 17 17 0 0 0-1.76-2 15.58 15.58 0 0 0-2.18-1.78 16.09 16.09 0 0 0-9-2.8h-0.23a15.81 15.81 0 0 0-4 0.54l8.24-14.2-4.1-2.35-2.59 4.44-8.68 14.9q-2.84 4.84-3.27 5.69a16.36 16.36 0 0 0-1.74 7.17v0.5a16.13 16.13 0 0 0 1 5.39 16.78 16.78 0 0 0 1.55 3.2 20.18 20.18 0 0 0 2 2.62c0.79 0.76 1.43 1.33 1.92 1.72a16.27 16.27 0 0 0 15.78 2.11 16.66 16.66 0 0 0 4.92-3.06 18.33 18.33 0 0 0 3.22-4 16.46 16.46 0 0 0 2.13-8v-0.44a16.53 16.53 0 0 0-1.8-7.36zm-5.35 14.81a14.07 14.07 0 0 1-1.41 1.55 11.47 11.47 0 0 1-15.49-0.1 14.71 14.71 0 0 1-1.41-1.58 11.66 11.66 0 0 1-2.35-7v-0.13a11.65 11.65 0 0 1 2.55-7.3 11.49 11.49 0 0 1 1.35-1.41 11.32 11.32 0 0 1 15.85 0.5 11.85 11.85 0 0 1 0.91 15.48z" fill="url(#linear-gradient-7)"/>
  <path class="cls-11" d="m487.5 480.22q-6-6.13-13.26-6.14h-0.32q-7.9 0-14.15 7.17a27.11 27.11 0 0 0-5.81 17v0.47a26.85 26.85 0 0 0 5.63 16.73q6.18 7.46 14.51 7.45 7.44 0 13.4-6.13a28.06 28.06 0 0 0 0-36.56zm-2.09 31.34q-4.86 6.44-11.24 6.44-6.06 0-10.74-5.56a22.48 22.48 0 0 1-4.54-13.69v-0.39a22.87 22.87 0 0 1 3.93-13q4.86-6.36 11.18-6.36 6.46 0 11.21 6.25a22.8 22.8 0 0 1 4.08 13.26 23 23 0 0 1-3.88 13.05z" fill="url(#linear-gradient-8)"/>
  <path class="cls-12" d="m111.89 539.34a5.94 5.94 0 0 0-4.75-2.45 5.83 5.83 0 0 0-4.21 1.77 6.6 6.6 0 0 0-1.92 4.71v0.12a6.82 6.82 0 0 0 1.3 4 6 6 0 0 0 4.81 2.46 5.88 5.88 0 0 0 4.21-1.82 6.25 6.25 0 0 0 1.32-2c-0.42-0.19-1-0.44-1.71-0.72a4.67 4.67 0 0 1-0.62 1 4 4 0 0 1-3.19 1.6 4.12 4.12 0 0 1-3.66-2.34 4.76 4.76 0 0 1-0.54-1.81h10.22s0.08-0.21 0.08-0.62v-0.16a6.71 6.71 0 0 0-1.34-3.74zm-8.8 2.68a4.85 4.85 0 0 1 0.65-1.4 4.09 4.09 0 0 1 3.35-1.83 3.9 3.9 0 0 1 2.14 0.63 4.55 4.55 0 0 1 1.91 2.6z" fill="url(#linear-gradient-9)"/>
  <path class="cls-13" d="m127.12 543.18 4.78-6.18h-2.44a5.86 5.86 0 0 0-0.47 0.6q-3 3.93-3.21 4.19l-3.69-4.79h-2.45l4.76 6.11-5.15 6.6h2.41l4.06-5.29 4.07 5.29h2.43q-4.84-6.24-5.1-6.53z" fill="url(#linear-gradient-10)"/>
  <path class="cls-14" d="m151.24 540.53a6.77 6.77 0 0 0-1.37-1.92 6.08 6.08 0 0 0-4.21-1.73 4.94 4.94 0 0 0-4.39 2.25v-1.91h-1.8v18.34h1.8v-7.89 0.07a5 5 0 0 0 4.23 2.18 6.25 6.25 0 0 0 4.49-1.85 6.57 6.57 0 0 0 1.87-4.53v-0.3a6.6 6.6 0 0 0-0.62-2.71zm-1.26 3a4.77 4.77 0 0 1-0.5 2.07 4.28 4.28 0 0 1-4 2.46 3.79 3.79 0 0 1-3-1.36 4.91 4.91 0 0 1-1.18-3.12v-0.13a5 5 0 0 1 0.32-1.81 4 4 0 0 1 4-2.81 4.08 4.08 0 0 1 2.88 1.18 4.66 4.66 0 0 1 1.43 3.31z" fill="url(#linear-gradient-11)"/>
  <path class="cls-15" d="m169.34 539.34a5.94 5.94 0 0 0-4.75-2.45 5.81 5.81 0 0 0-4.21 1.77 6.57 6.57 0 0 0-1.93 4.71v0.12a6.83 6.83 0 0 0 1.31 4 6 6 0 0 0 4.8 2.46 5.86 5.86 0 0 0 4.21-1.82 5.92 5.92 0 0 0 1.32-2c-0.41-0.19-1-0.44-1.71-0.72a5.11 5.11 0 0 1-0.62 1 4 4 0 0 1-3.19 1.6 4.12 4.12 0 0 1-3.66-2.34 4.76 4.76 0 0 1-0.54-1.81h10.21c0.06 0 0.09-0.21 0.09-0.62v-0.16a6.71 6.71 0 0 0-1.33-3.74zm-8.8 2.68a4.6 4.6 0 0 1 0.65-1.4 4.09 4.09 0 0 1 3.35-1.83 3.9 3.9 0 0 1 2.14 0.63 4.6 4.6 0 0 1 1.91 2.6z" fill="url(#linear-gradient-12)"/>
  <path class="cls-16" d="m183.57 536.92a7 7 0 0 0-1.73 0.23 3.12 3.12 0 0 0-1.74 1.16v-1.09h-1.81v12.54h1.71v-7.76a2.58 2.58 0 0 1 0.2-1 3.18 3.18 0 0 1 3.15-2.07 4.43 4.43 0 0 1 2.21 0.7l0.42-2a4.85 4.85 0 0 0-2.41-0.71z" fill="url(#linear-gradient-13)"/>
  <path class="cls-17" d="m195.09 530.53a1.34 1.34 0 0 0-0.94-0.43h-0.15a1.27 1.27 0 0 0-0.86 0.35 1.29 1.29 0 0 0-0.43 0.94v0.11a1.23 1.23 0 0 0 0.28 0.76 1.3 1.3 0 0 0 1 0.53h0.08a1.27 1.27 0 0 0 0.82-0.31 1.3 1.3 0 0 0 0.49-1v-0.07a1.37 1.37 0 0 0-0.29-0.88zm-0.09 6.47h-1.86v12.8h1.86z" fill="url(#linear-gradient-14)"/>
  <path class="cls-18" d="m213.42 539.34a5.92 5.92 0 0 0-4.75-2.45 5.83 5.83 0 0 0-4.21 1.77 6.6 6.6 0 0 0-1.92 4.71v0.12a6.82 6.82 0 0 0 1.3 4 6 6 0 0 0 4.81 2.46 5.88 5.88 0 0 0 4.21-1.82 6.25 6.25 0 0 0 1.32-2c-0.41-0.19-1-0.44-1.71-0.72a4.67 4.67 0 0 1-0.62 1 4 4 0 0 1-3.19 1.6 4.12 4.12 0 0 1-3.66-2.34 4.89 4.89 0 0 1-0.53-1.81h10.21s0.08-0.21 0.08-0.62v-0.16a6.71 6.71 0 0 0-1.34-3.74zm-8.8 2.68a4.85 4.85 0 0 1 0.65-1.4 4.09 4.09 0 0 1 3.35-1.83 3.88 3.88 0 0 1 2.14 0.63 4.55 4.55 0 0 1 1.91 2.6z" fill="url(#linear-gradient-15)"/>
  <path class="cls-19" d="m233.12 539.91c-0.87-1.93-2.56-2.9-5.09-2.9h-0.22a5 5 0 0 0-3.64 1.48v-1.25h-1.8v12.52h1.8v-7.94a2.46 2.46 0 0 1 1-2.22 3.85 3.85 0 0 1 2.52-0.7 6.55 6.55 0 0 1 1.84 0.17 2.59 2.59 0 0 1 2 2.64v8.05h1.82v-8.05a4.76 4.76 0 0 0-0.23-1.8z" fill="url(#linear-gradient-16)"/>
  <path class="cls-20" d="m250.85 546-0.2 0.28a4.22 4.22 0 0 1-3.38 1.73 4.15 4.15 0 0 1-2.86-1.17 4.65 4.65 0 0 1-1.46-3.39v-0.06a4.75 4.75 0 0 1 1.23-3.22 4.12 4.12 0 0 1 3-1.39h0.22a3.52 3.52 0 0 1 1.1 0.18 4.39 4.39 0 0 1 2.37 1.8l1.56-1a7 7 0 0 0-1.16-1.33 5.9 5.9 0 0 0-3.79-1.48h-0.35a5.92 5.92 0 0 0-4 1.72 6.57 6.57 0 0 0-2 4.7v0.15a6.57 6.57 0 0 0 2 4.71 6.1 6.1 0 0 0 4.21 1.72 6.15 6.15 0 0 0 5.17-2.88z" fill="url(#linear-gradient-17)"/>
  <path class="cls-21" d="m269.53 539.34a6 6 0 0 0-4.75-2.45 5.85 5.85 0 0 0-4.22 1.77 6.6 6.6 0 0 0-1.92 4.71v0.12a6.82 6.82 0 0 0 1.3 4 6 6 0 0 0 4.81 2.46 5.88 5.88 0 0 0 4.25-1.85 6.25 6.25 0 0 0 1.32-2c-0.41-0.19-1-0.44-1.71-0.72a4.3 4.3 0 0 1-0.62 1 4 4 0 0 1-3.18 1.6 4.42 4.42 0 0 1-1.34-0.24 4.32 4.32 0 0 1-2.32-2.1 4.76 4.76 0 0 1-0.54-1.81h10.21s0.08-0.21 0.08-0.62v-0.16a6.7 6.7 0 0 0-1.37-3.71zm-8.8 2.68a4.58 4.58 0 0 1 0.64-1.4 4.1 4.1 0 0 1 3.35-1.83 3.88 3.88 0 0 1 2.14 0.63 4.51 4.51 0 0 1 1.91 2.6z" fill="url(#linear-gradient-18)"/>
  <path class="cls-22" d="m309.65 539.65q-1.37-2.64-5-2.64h-0.38a5.34 5.34 0 0 0-4.43 1.85 5.42 5.42 0 0 0-4.48-1.85h-0.23a5 5 0 0 0-3.63 1.48v-1.25h-1.8v12.52h1.8v-7.94a2.46 2.46 0 0 1 1-2.22 3.8 3.8 0 0 1 2.51-0.7 6.63 6.63 0 0 1 1.85 0.17 2.6 2.6 0 0 1 2 2.64v8.05h1.81v-7.9a3.09 3.09 0 0 1 0.21-1.25c0.5-1.14 1.59-1.71 3.28-1.71h0.46a4.94 4.94 0 0 1 1.83 0.32 2.54 2.54 0 0 1 1.61 2.4v8.14h1.94v-8.17a4.72 4.72 0 0 0-0.35-1.94z" fill="url(#linear-gradient-19)"/>
  <path class="cls-23" d="m328 538.52a5.93 5.93 0 0 0-3.93-1.6h-0.35a5.92 5.92 0 0 0-4 1.72 6.56 6.56 0 0 0-2 4.68v0.17a6.6 6.6 0 0 0 2 4.71 6 6 0 0 0 8.21 0.2 6.72 6.72 0 0 0 0.11-9.88zm-0.64 7.66a4.25 4.25 0 0 1-3.47 1.85 4.16 4.16 0 0 1-2.89-1.19 4.71 4.71 0 0 1-1.43-3.37v-0.06a4.83 4.83 0 0 1 1.21-3.22 4.21 4.21 0 0 1 3-1.39h0.2a4.08 4.08 0 0 1 2.72 1.09 4.74 4.74 0 0 1 1.53 3.52 5 5 0 0 1-0.87 2.77z" fill="url(#linear-gradient-20)"/>
  <path class="cls-24" d="m343.16 536.92a7.06 7.06 0 0 0-1.74 0.23 3.1 3.1 0 0 0-1.73 1.16v-1.09h-1.8v12.54h1.8v-7.76a2.76 2.76 0 0 1 0.2-1 3.18 3.18 0 0 1 3.15-2.07 4.4 4.4 0 0 1 2.21 0.7l0.42-2a4.81 4.81 0 0 0-2.51-0.71z" fill="url(#linear-gradient-21)"/>
  <path class="cls-25" d="m362.33 539.34a5.94 5.94 0 0 0-4.75-2.45 5.81 5.81 0 0 0-4.21 1.77 6.57 6.57 0 0 0-1.93 4.71v0.12a6.83 6.83 0 0 0 1.31 4 6 6 0 0 0 4.8 2.46 5.86 5.86 0 0 0 4.21-1.82 5.92 5.92 0 0 0 1.32-2c-0.41-0.19-1-0.44-1.71-0.72a5.11 5.11 0 0 1-0.62 1 4 4 0 0 1-3.19 1.6 4.12 4.12 0 0 1-3.66-2.34 4.76 4.76 0 0 1-0.54-1.81h10.21c0.06 0 0.08-0.21 0.08-0.62v-0.16a6.7 6.7 0 0 0-1.32-3.74zm-8.8 2.68a4.82 4.82 0 0 1 0.64-1.4 4.12 4.12 0 0 1 3.36-1.83 3.85 3.85 0 0 1 2.13 0.63 4.57 4.57 0 0 1 1.92 2.6z" fill="url(#linear-gradient-22)"/>
  <path class="cls-26" d="m385.51 533.72a2.73 2.73 0 0 1 2.49-1.72h0.31v-1.86h-0.31a4.68 4.68 0 0 0-2.25 0.63 4 4 0 0 0-0.8 0.62 3.82 3.82 0 0 0-0.52 0.58 8 8 0 0 0-1.35 4.83v0.2h-2.28v1.85h2.2v10.88h1.85v-10.83h3.42v-1.9h-3.42v-0.09a7.44 7.44 0 0 1 0.66-3.19z" fill="url(#linear-gradient-23)"/>
  <path class="cls-27" d="m403.9 538.52a5.93 5.93 0 0 0-3.93-1.6h-0.35a5.92 5.92 0 0 0-4 1.72 6.56 6.56 0 0 0-2 4.68v0.17a6.6 6.6 0 0 0 2 4.71 6 6 0 0 0 8.21 0.2 6.72 6.72 0 0 0 0.11-9.88zm-0.63 7.66a4.27 4.27 0 0 1-3.48 1.85 4.16 4.16 0 0 1-2.89-1.19 4.71 4.71 0 0 1-1.43-3.37v-0.06a4.83 4.83 0 0 1 1.21-3.22 4.21 4.21 0 0 1 3-1.39h0.2a4.08 4.08 0 0 1 2.72 1.09 4.71 4.71 0 0 1 1.54 3.52 5 5 0 0 1-0.87 2.77z" fill="url(#linear-gradient-24)"/>
  <path class="cls-28" d="m419.06 536.92a7.06 7.06 0 0 0-1.74 0.23 3.1 3.1 0 0 0-1.73 1.16v-1.09h-1.8v12.54h1.8v-7.76a2.59 2.59 0 0 1 0.21-1 3.18 3.18 0 0 1 3.14-2.07 4.4 4.4 0 0 1 2.21 0.7l0.42-2a4.81 4.81 0 0 0-2.51-0.71z" fill="url(#linear-gradient-25)"/>
  <path class="cls-29" d="m441.62 530.1h-1.87v19.7h1.86v-19.69z" fill="url(#linear-gradient-26)"/>
  <path class="cls-30" d="m459.87 539.34a5.92 5.92 0 0 0-4.75-2.45 5.83 5.83 0 0 0-4.21 1.77 6.6 6.6 0 0 0-1.92 4.71v0.12a6.82 6.82 0 0 0 1.3 4 6 6 0 0 0 4.81 2.46 5.88 5.88 0 0 0 4.21-1.82 6.25 6.25 0 0 0 1.32-2c-0.42-0.19-1-0.44-1.71-0.72a4.67 4.67 0 0 1-0.62 1 4 4 0 0 1-3.19 1.6 4.12 4.12 0 0 1-3.66-2.34 4.76 4.76 0 0 1-0.54-1.81h10.19c0.05 0 0.08-0.21 0.08-0.62v-0.16a6.71 6.71 0 0 0-1.31-3.74zm-8.8 2.68a4.85 4.85 0 0 1 0.65-1.4 4.09 4.09 0 0 1 3.35-1.83 3.9 3.9 0 0 1 2.14 0.63 4.55 4.55 0 0 1 1.91 2.6z" fill="url(#linear-gradient-27)"/>
  <path class="cls-31" d="m476.91 543.9a6.39 6.39 0 0 0-0.5-0.47 5.64 5.64 0 0 0-0.82-0.5 6.25 6.25 0 0 0-1.11-0.37l-1.71-0.34a9.5 9.5 0 0 1-2-0.64 1.92 1.92 0 0 1-0.42-0.26 0.83 0.83 0 0 1-0.39-0.74 1.56 1.56 0 0 1 0.6-1.18 4.07 4.07 0 0 1 4.39-0.11 2.73 2.73 0 0 1 0.73 0.7q0.39-0.25 1.62-1a1.48 1.48 0 0 0-0.21-0.31 5.1 5.1 0 0 0-0.66-0.67 4.81 4.81 0 0 0-0.86-0.58 5.44 5.44 0 0 0-2.61-0.66h-0.19a6 6 0 0 0-1.76 0.27 4.79 4.79 0 0 0-1.4 0.67 5.11 5.11 0 0 0-0.62 0.54 3.33 3.33 0 0 0-0.93 2.26c0 1.36 0.83 2.34 2.49 3a20.67 20.67 0 0 0 3.38 0.82 4.63 4.63 0 0 1 0.78 0.24c0.75 0.35 1.12 0.82 1.12 1.42a1.68 1.68 0 0 1-0.45 1.1 2.16 2.16 0 0 1-0.48 0.38 4.22 4.22 0 0 1-2.13 0.55 4.57 4.57 0 0 1-1.56-0.27 3.52 3.52 0 0 1-1.8-1.55l-0.86 0.47a8.57 8.57 0 0 0-0.78 0.45 5.31 5.31 0 0 0 2 2.06 6.11 6.11 0 0 0 2.87 0.72h0.17a6.29 6.29 0 0 0 2.66-0.6 6.35 6.35 0 0 0 0.78-0.49 5.53 5.53 0 0 0 0.55-0.52 3.53 3.53 0 0 0 0.87-2.26v-0.03a3.2 3.2 0 0 0-0.76-2.1z" fill="url(#linear-gradient-28)"/>
  <path class="cls-32" d="m493.47 543.9a6.39 6.39 0 0 0-0.5-0.47 5.64 5.64 0 0 0-0.82-0.5 6.25 6.25 0 0 0-1.11-0.37l-1.7-0.34a9.43 9.43 0 0 1-2-0.64 1.92 1.92 0 0 1-0.42-0.26 0.83 0.83 0 0 1-0.39-0.74 1.56 1.56 0 0 1 0.6-1.18 4.07 4.07 0 0 1 4.39-0.11 2.73 2.73 0 0 1 0.73 0.7q0.39-0.25 1.62-1a1.48 1.48 0 0 0-0.21-0.31 5.65 5.65 0 0 0-0.66-0.68 5.25 5.25 0 0 0-0.87-0.58 5.44 5.44 0 0 0-2.61-0.66h-0.18a6 6 0 0 0-1.77 0.27 4.79 4.79 0 0 0-1.4 0.67 5.11 5.11 0 0 0-0.62 0.54 3.36 3.36 0 0 0-0.92 2.26c0 1.36 0.83 2.34 2.48 3a20.67 20.67 0 0 0 3.38 0.82 4.63 4.63 0 0 1 0.78 0.24c0.75 0.35 1.12 0.82 1.12 1.42a1.72 1.72 0 0 1-0.44 1.1 2.42 2.42 0 0 1-0.49 0.38 4.21 4.21 0 0 1-2.12 0.55 4.59 4.59 0 0 1-1.57-0.27 3.52 3.52 0 0 1-1.8-1.55l-0.86 0.47a8.57 8.57 0 0 0-0.78 0.45 5.38 5.38 0 0 0 2 2.06 6.14 6.14 0 0 0 2.87 0.72h0.18a6.24 6.24 0 0 0 2.65-0.6 6.35 6.35 0 0 0 0.78-0.49 4.6 4.6 0 0 0 0.55-0.52 3.53 3.53 0 0 0 0.87-2.26v-0.02a3.2 3.2 0 0 0-0.76-2.1z" fill="url(#linear-gradient-29)"/>
  <path class="cls-33" d="m197 291.16a0.12 0.12 0 0 1-0.14 0.11 0.36 0.36 0 0 0-0.3 0.08 0.54 0.54 0 0 0-0.11 0.32 0.14 0.14 0 0 1-0.13 0.14 0.15 0.15 0 0 1-0.14-0.13 0.75 0.75 0 0 1 0.2-0.55 0.6 0.6 0 0 1 0.5-0.15 0.13 0.13 0 0 1 0.12 0.18z" fill="url(#linear-gradient-30)"/>
  <path class="cls-34" d="m199.29 292.22a0.14 0.14 0 0 1 0 0.19 0.13 0.13 0 0 1-0.19 0 0.49 0.49 0 0 0-0.34-0.2 0.65 0.65 0 0 0-0.41 0.21 0.13 0.13 0 0 1-0.19 0 0.12 0.12 0 0 1 0-0.18 0.87 0.87 0 0 1 0.61-0.3 0.74 0.74 0 0 1 0.52 0.28z" fill="url(#linear-gradient-31)"/>
  <path class="cls-35" d="m199.32 290.49a0.15 0.15 0 0 1 0 0.19 0.14 0.14 0 0 1-0.19 0 0.72 0.72 0 0 0-0.57-0.31 1 1 0 0 0-0.67 0.35 0.13 0.13 0 0 1-0.18 0 0.13 0.13 0 0 1 0-0.19 1.28 1.28 0 0 1 0.87-0.45 1 1 0 0 1 0.78 0.4z" fill="url(#linear-gradient-32)"/>
  <path class="cls-36" d="m201 291a0.14 0.14 0 0 1 0 0.19 0.14 0.14 0 0 1-0.18 0 0.32 0.32 0 0 0-0.24-0.17 0.45 0.45 0 0 0-0.31 0.12 0.14 0.14 0 0 1-0.19 0 0.13 0.13 0 0 1 0-0.18 0.77 0.77 0 0 1 0.53-0.21 0.64 0.64 0 0 1 0.39 0.25z" fill="url(#linear-gradient-33)"/>
  <path class="cls-37" d="m202.44 292.31a0.14 0.14 0 0 1 0 0.18 0.14 0.14 0 0 1-0.19 0 0.37 0.37 0 0 0-0.28-0.19 0.41 0.41 0 0 0-0.31 0.14 0.14 0.14 0 0 1-0.18 0 0.14 0.14 0 0 1 0-0.19 0.75 0.75 0 0 1 0.52-0.25 0.59 0.59 0 0 1 0.48 0.29z" fill="url(#linear-gradient-34)"/>
  <path class="cls-38" d="m203.44 291a0.13 0.13 0 0 1 0 0.18h-0.07a0.12 0.12 0 0 1-0.11-0.07 0.72 0.72 0 0 0-0.45-0.4 0.93 0.93 0 0 0-0.67 0.17 0.13463 0.13463 0 0 1-0.14-0.23 1.23 1.23 0 0 1 0.89-0.21 0.92 0.92 0 0 1 0.55 0.56z" fill="url(#linear-gradient-35)"/>
  <path class="cls-39" d="m170.77 286.29v10.71h16.63v23.38h13v-11.98h12v-22.11zm32.62 19.14h-1.65l0.36-3.49a0.17 0.17 0 0 0-0.15-0.2 0.19 0.19 0 0 0-0.19 0.16l-0.36 3.53h-1.55v-7.74a0.17 0.17 0 0 0-0.18-0.17 0.17 0.17 0 0 0-0.17 0.17v7.74h-1.55l-0.37-3.53a0.18 0.18 0 0 0-0.19-0.15 0.17 0.17 0 0 0-0.16 0.19l0.36 3.49h-1.65l-2.08-12a1 1 0 0 1 0.3 0 0.55 0.55 0 0 1 0.38 0.16 1.1 1.1 0 0 0 0.62 0.28 1.82 1.82 0 0 0 0.79-0.24l0.36-0.15 0.77 7.62a0.18 0.18 0 0 0 0.18 0.16 0.18 0.18 0 0 0 0.16-0.2l-0.78-7.7a1.41 1.41 0 0 1 0.35 0 1.55 1.55 0 0 1 0.86 0.28 1.39 1.39 0 0 0 0.52 0.21 2.62 2.62 0 0 0 1.11-0.18v3.15a0.18 0.18 0 1 0 0.36 0v-3.28a2.19 2.19 0 0 1 0.57-0.16 0.61 0.61 0 0 1 0.46 0.2 1.21 1.21 0 0 0 0.76 0.32 1.27 1.27 0 0 0 0.63-0.2 3.06 3.06 0 0 1 0.41-0.19l-0.77 7.6a0.19 0.19 0 0 0 0.16 0.2 0.17 0.17 0 0 0 0.17-0.16l0.78-7.7h0.08a1.82 1.82 0 0 1 1 0.32c0.36 0.22 0.59 0.27 1.35-0.07zm2.08-12.24c-0.82 0.39-0.94 0.32-1.19 0.17a2.21 2.21 0 0 0-1.14-0.37 1.89 1.89 0 0 0-1 0.28 1 1 0 0 1-0.44 0.17 0.85 0.85 0 0 1-0.56-0.25 1 1 0 0 0-0.69-0.28 2.72 2.72 0 0 0-0.69 0.19 3.13 3.13 0 0 1-1.31 0.29 1.17 1.17 0 0 1-0.38-0.17 1.78 1.78 0 0 0-1.58-0.23h-0.07l-0.57 0.23a1.59 1.59 0 0 1-0.6 0.21 0.76 0.76 0 0 1-0.44-0.21 0.91 0.91 0 0 0-0.6-0.24 1.26 1.26 0 0 0-0.33 0 2 2 0 0 1 0-0.25 1 1 0 0 1 0.39-0.74 1.08 1.08 0 0 1 0.85-0.21h0.1a0.15 0.15 0 0 0 0.18-0.08 0.15 0.15 0 0 0 0-0.19 1.05 1.05 0 0 1 0.16-1.37 1.09 1.09 0 0 1 0.75-0.26 0.94 0.94 0 0 1 0.44 0.13 0.19 0.19 0 0 0 0.26-0.1 0.36 0.36 0 0 1 0.34-0.23 0.18 0.18 0 0 1 0.1 0 0.19 0.19 0 0 0 0.23-0.11 0.17 0.17 0 0 0 0-0.1 0.33 0.33 0 0 1 0-0.1 1.035 1.035 0 0 1 2.07 0v0.13a0.85 0.85 0 0 1 0 0.23 0.17 0.17 0 0 0 0.12 0.22 0.18 0.18 0 0 0 0.21-0.08 0.78 0.78 0 0 1 0.71-0.45c0.27 0 0.47 0.24 0.58 0.59a0.2 0.2 0 0 0 0.18 0.12 0.17 0.17 0 0 0 0.16-0.14 1.0119 1.0119 0 0 1 2 0.31v0.07a0.16 0.16 0 0 0 0.07 0.16 0.15 0.15 0 0 0 0.17 0 0.65 0.65 0 0 1 0.31-0.05 0.69 0.69 0 0 1 0.65 0.73v0.23a0.17 0.17 0 0 0 0.11 0.2 1 1 0 0 1 0.59 0.51 1.06 1.06 0 0 1-0.14 1.04z" fill="url(#linear-gradient-36)"/>
  <path class="cls-40" d="m139.52 345a2 2 0 0 1 1.2 0.28 2.8 2.8 0 0 1-2.4 0 2 2 0 0 1 1.2-0.28z" fill="url(#linear-gradient-37)"/>
  <path class="cls-41" d="m129.82 328.89v20.56h23.25v-20.56zm15.8 18.23a12.8 12.8 0 0 1-8.35 0c-1.14-0.46-1.76-1.1-1.76-1.79s0.78-1.48 2.15-1.94v-12.53a0.32 0.32 0 0 1 0.32-0.32 0.33 0.33 0 0 1 0.31 0.23 2 2 0 0 1 1-0.24 3.05 3.05 0 0 1 1.23 0.29 3 3 0 0 0 1.32 0.3 2.82 2.82 0 0 0 1.11-0.22h0.12a0.28 0.28 0 0 1 0.18 0.06 0.31 0.31 0 0 1 0.14 0.26v3.64a0.31 0.31 0 0 1-0.2 0.3 3.7 3.7 0 0 1-1.36 0.26 3.5 3.5 0 0 1-1.59-0.37 2.35 2.35 0 0 0-1-0.23 1.33 1.33 0 0 0-1 0.37v8a12.83 12.83 0 0 1 3.14-0.36 11.42 11.42 0 0 1 4.18 0.69c1.14 0.46 1.76 1.1 1.76 1.8s-0.56 1.34-1.7 1.8z" fill="url(#linear-gradient-38)"/>
  <rect class="cls-42" x="160.52" y="310.24" width="12.05" height="10.66" fill="url(#linear-gradient-39)"/>
  <path class="cls-43" d="m128.47 368.81v12.19h13.74v-12.19z" fill="url(#linear-gradient-40)"/>
  <path class="cls-44" d="m119.41 363a0.55 0.55 0 0 0-0.25-0.07 0.53 0.53 0 0 0-0.23 0.06 1.47 1.47 0 0 0-0.7 1 1.88 1.88 0 0 0 0.52 2 0.61 0.61 0 0 0 0.25 0.06 0.52 0.52 0 0 0 0.24 0 1.49 1.49 0 0 0 0.7-1 1.88 1.88 0 0 0-0.53-2.05zm4.91 1a1.93 1.93 0 0 0-0.29-0.65 1 1 0 0 0-0.42-0.38 0.53 0.53 0 0 0-0.23-0.06 0.55 0.55 0 0 0-0.25 0.07 1.87 1.87 0 0 0-0.53 2 1.53 1.53 0 0 0 0.71 1 0.48 0.48 0 0 0 0.23 0 0.57 0.57 0 0 0 0.25-0.06 1.88 1.88 0 0 0 0.53-1.92zm0 0a1.93 1.93 0 0 0-0.29-0.65 1 1 0 0 0-0.42-0.38 0.53 0.53 0 0 0-0.23-0.06 0.55 0.55 0 0 0-0.25 0.07 1.87 1.87 0 0 0-0.53 2 1.53 1.53 0 0 0 0.71 1 0.48 0.48 0 0 0 0.23 0 0.57 0.57 0 0 0 0.25-0.06 1.88 1.88 0 0 0 0.53-1.92zm-4.91-1a0.55 0.55 0 0 0-0.25-0.07 0.53 0.53 0 0 0-0.23 0.06 1.47 1.47 0 0 0-0.7 1 1.88 1.88 0 0 0 0.52 2 0.61 0.61 0 0 0 0.25 0.06 0.52 0.52 0 0 0 0.24 0 1.49 1.49 0 0 0 0.7-1 1.88 1.88 0 0 0-0.53-2.05zm0 0a0.55 0.55 0 0 0-0.25-0.07 0.53 0.53 0 0 0-0.23 0.06 1.47 1.47 0 0 0-0.7 1 1.88 1.88 0 0 0 0.52 2 0.61 0.61 0 0 0 0.25 0.06 0.52 0.52 0 0 0 0.24 0 1.49 1.49 0 0 0 0.7-1 1.88 1.88 0 0 0-0.53-2.05zm4.91 1a1.93 1.93 0 0 0-0.29-0.65 1 1 0 0 0-0.42-0.38 0.53 0.53 0 0 0-0.23-0.06 0.55 0.55 0 0 0-0.25 0.07 1.87 1.87 0 0 0-0.53 2 1.53 1.53 0 0 0 0.71 1 0.48 0.48 0 0 0 0.23 0 0.57 0.57 0 0 0 0.25-0.06 1.88 1.88 0 0 0 0.53-1.92zm0 0a1.93 1.93 0 0 0-0.29-0.65 1 1 0 0 0-0.42-0.38 0.53 0.53 0 0 0-0.23-0.06 0.55 0.55 0 0 0-0.25 0.07 1.87 1.87 0 0 0-0.53 2 1.53 1.53 0 0 0 0.71 1 0.48 0.48 0 0 0 0.23 0 0.57 0.57 0 0 0 0.25-0.06 1.88 1.88 0 0 0 0.53-1.92zm-4.91-1a0.55 0.55 0 0 0-0.25-0.07 0.53 0.53 0 0 0-0.23 0.06 1.47 1.47 0 0 0-0.7 1 1.88 1.88 0 0 0 0.52 2 0.61 0.61 0 0 0 0.25 0.06 0.52 0.52 0 0 0 0.24 0 1.49 1.49 0 0 0 0.7-1 1.88 1.88 0 0 0-0.53-2.05zm0 0a0.55 0.55 0 0 0-0.25-0.07 0.53 0.53 0 0 0-0.23 0.06 1.47 1.47 0 0 0-0.7 1 1.88 1.88 0 0 0 0.52 2 0.61 0.61 0 0 0 0.25 0.06 0.52 0.52 0 0 0 0.24 0 1.49 1.49 0 0 0 0.7-1 1.88 1.88 0 0 0-0.53-2.05zm4.91 1a1.93 1.93 0 0 0-0.29-0.65 1 1 0 0 0-0.42-0.38 0.53 0.53 0 0 0-0.23-0.06 0.55 0.55 0 0 0-0.25 0.07 1.87 1.87 0 0 0-0.53 2 1.53 1.53 0 0 0 0.71 1 0.48 0.48 0 0 0 0.23 0 0.57 0.57 0 0 0 0.25-0.06 1.88 1.88 0 0 0 0.53-1.92zm0 0a1.93 1.93 0 0 0-0.29-0.65 1 1 0 0 0-0.42-0.38 0.53 0.53 0 0 0-0.23-0.06 0.55 0.55 0 0 0-0.25 0.07 1.87 1.87 0 0 0-0.53 2 1.53 1.53 0 0 0 0.71 1 0.48 0.48 0 0 0 0.23 0 0.57 0.57 0 0 0 0.25-0.06 1.88 1.88 0 0 0 0.53-1.92zm-4.91-1a0.55 0.55 0 0 0-0.25-0.07 0.53 0.53 0 0 0-0.23 0.06 1.47 1.47 0 0 0-0.7 1 1.88 1.88 0 0 0 0.52 2 0.61 0.61 0 0 0 0.25 0.06 0.52 0.52 0 0 0 0.24 0 1.49 1.49 0 0 0 0.7-1 1.88 1.88 0 0 0-0.53-2.05zm0 0a0.55 0.55 0 0 0-0.25-0.07 0.53 0.53 0 0 0-0.23 0.06 1.47 1.47 0 0 0-0.7 1 1.88 1.88 0 0 0 0.52 2 0.61 0.61 0 0 0 0.25 0.06 0.52 0.52 0 0 0 0.24 0 1.49 1.49 0 0 0 0.7-1 1.88 1.88 0 0 0-0.53-2.05zm4.91 1a1.93 1.93 0 0 0-0.29-0.65 1 1 0 0 0-0.42-0.38 0.53 0.53 0 0 0-0.23-0.06 0.55 0.55 0 0 0-0.25 0.07 1.87 1.87 0 0 0-0.53 2 1.53 1.53 0 0 0 0.71 1 0.48 0.48 0 0 0 0.23 0 0.57 0.57 0 0 0 0.25-0.06 1.88 1.88 0 0 0 0.53-1.92zm0 0a1.93 1.93 0 0 0-0.29-0.65 1 1 0 0 0-0.42-0.38 0.53 0.53 0 0 0-0.23-0.06 0.55 0.55 0 0 0-0.25 0.07 1.87 1.87 0 0 0-0.53 2 1.53 1.53 0 0 0 0.71 1 0.48 0.48 0 0 0 0.23 0 0.57 0.57 0 0 0 0.25-0.06 1.88 1.88 0 0 0 0.53-1.92zm-4.91-1a0.55 0.55 0 0 0-0.25-0.07 0.53 0.53 0 0 0-0.23 0.06 1.47 1.47 0 0 0-0.7 1 1.88 1.88 0 0 0 0.52 2 0.61 0.61 0 0 0 0.25 0.06 0.52 0.52 0 0 0 0.24 0 1.49 1.49 0 0 0 0.7-1 1.88 1.88 0 0 0-0.53-2.05zm0 0a0.55 0.55 0 0 0-0.25-0.07 0.53 0.53 0 0 0-0.23 0.06 1.47 1.47 0 0 0-0.7 1 1.88 1.88 0 0 0 0.52 2 0.61 0.61 0 0 0 0.25 0.06 0.52 0.52 0 0 0 0.24 0 1.49 1.49 0 0 0 0.7-1 1.88 1.88 0 0 0-0.53-2.05zm4.91 1a1.93 1.93 0 0 0-0.29-0.65 1 1 0 0 0-0.42-0.38 0.53 0.53 0 0 0-0.23-0.06 0.55 0.55 0 0 0-0.25 0.07 1.87 1.87 0 0 0-0.53 2 1.53 1.53 0 0 0 0.71 1 0.48 0.48 0 0 0 0.23 0 0.57 0.57 0 0 0 0.25-0.06 1.88 1.88 0 0 0 0.53-1.92zm0 0a1.93 1.93 0 0 0-0.29-0.65 1 1 0 0 0-0.42-0.38 0.53 0.53 0 0 0-0.23-0.06 0.55 0.55 0 0 0-0.25 0.07 1.87 1.87 0 0 0-0.53 2 1.53 1.53 0 0 0 0.71 1 0.48 0.48 0 0 0 0.23 0 0.57 0.57 0 0 0 0.25-0.06 1.88 1.88 0 0 0 0.53-1.92zm-4.91-1a0.55 0.55 0 0 0-0.25-0.07 0.53 0.53 0 0 0-0.23 0.06 1.47 1.47 0 0 0-0.7 1 1.88 1.88 0 0 0 0.52 2 0.61 0.61 0 0 0 0.25 0.06 0.52 0.52 0 0 0 0.24 0 1.49 1.49 0 0 0 0.7-1 1.88 1.88 0 0 0-0.53-2.05zm-10.79-11.74v17.57h19.85v-17.59zm8.45 9.85a0.28 0.28 0 0 1-0.17 0.07h-1.53a0.6 0.6 0 0 0-0.47 0.19c-0.3 0.37-0.11 1.28 0.06 2.16a7.9 7.9 0 0 1 0.21 1.45c0 1-0.41 1.42-0.75 1.58a1.09 1.09 0 0 1-0.48 0.1 1.84 1.84 0 0 1-1.18-0.47 1.28 1.28 0 0 1-0.52-1.28 7.72 7.72 0 0 0 0.36-3.41 42.61 42.61 0 0 1-0.37-6.55 1.6 1.6 0 0 1 1.59-1.58h2.94a0.24 0.24 0 0 1 0.25 0.24 0.25 0.25 0 0 1-0.25 0.24h-2.09v0.86h2.12a0.24 0.24 0 0 1 0.24 0.24 0.24 0.24 0 0 1-0.24 0.24h-2.12v0.71h2.12a0.24 0.24 0 0 1 0.24 0.24 0.24 0.24 0 0 1-0.24 0.24h-2.12v0.71h2.12a0.24 0.24 0 0 1 0.24 0.24 0.24 0.24 0 0 1-0.24 0.24h-2.12v0.71h2.12a0.24 0.24 0 1 1 0 0.48h-2.12v0.71h2.12a0.24 0.24 0 1 1 0 0.48h-2.12v1a1.1 1.1 0 0 1 0.69-0.23h1.53a0.24 0.24 0 0 1 0.24 0.24 0.27 0.27 0 0 1-0.06 0.13zm6.94 5.39a1 1 0 0 1-0.47 0.12 0.94 0.94 0 0 1-0.43-0.1 2 2 0 0 1-1-1.35 3 3 0 0 1 0.07-1.72 0.16 0.16 0 0 1 0-0.07l-0.89-2.21-0.88 2.21a0.43 0.43 0 0 1 0 0.07 3 3 0 0 1 0.07 1.72 1.94 1.94 0 0 1-1 1.35 0.94 0.94 0 0 1-0.43 0.1 1 1 0 0 1-0.47-0.12 2.34 2.34 0 0 1-0.77-2.59 2 2 0 0 1 1-1.36 1.06 1.06 0 0 1 0.42-0.09 1 1 0 0 1 0.48 0.12 1.24 1.24 0 0 1 0.38 0.31l1-2.41-2.67-6.7a0.19 0.19 0 0 1 0-0.18 0.24 0.24 0 0 1 0.13-0.13h0.09a0.25 0.25 0 0 1 0.23 0.15l2.48 6.22 2.49-6.22a0.23 0.23 0 0 1 0.22-0.15h0.09a0.21 0.21 0 0 1 0.13 0.13 0.23 0.23 0 0 1 0 0.18l-2.68 6.7 1 2.41a1.52 1.52 0 0 1 0.38-0.31 1 1 0 0 1 0.48-0.12 1.11 1.11 0 0 1 0.43 0.09 2 2 0 0 1 1 1.36 3.29 3.29 0 0 1 0.09 0.76 2 2 0 0 1-0.98 1.81zm0-3.13a1 1 0 0 0-0.42-0.38 0.53 0.53 0 0 0-0.23-0.06 0.55 0.55 0 0 0-0.25 0.07 1.87 1.87 0 0 0-0.53 2 1.53 1.53 0 0 0 0.71 1 0.48 0.48 0 0 0 0.23 0 0.57 0.57 0 0 0 0.25-0.06 1.88 1.88 0 0 0 0.53-2 1.93 1.93 0 0 0-0.3-0.59zm-4.62-0.37a0.55 0.55 0 0 0-0.25-0.07 0.53 0.53 0 0 0-0.23 0.06 1.47 1.47 0 0 0-0.7 1 1.88 1.88 0 0 0 0.52 2 0.61 0.61 0 0 0 0.25 0.06 0.52 0.52 0 0 0 0.24 0 1.49 1.49 0 0 0 0.7-1 1.88 1.88 0 0 0-0.51-2.05zm0 0a0.55 0.55 0 0 0-0.25-0.07 0.53 0.53 0 0 0-0.23 0.06 1.47 1.47 0 0 0-0.7 1 1.88 1.88 0 0 0 0.52 2 0.61 0.61 0 0 0 0.25 0.06 0.52 0.52 0 0 0 0.24 0 1.49 1.49 0 0 0 0.7-1 1.88 1.88 0 0 0-0.51-2.05zm4.91 1a1.93 1.93 0 0 0-0.29-0.65 1 1 0 0 0-0.42-0.38 0.53 0.53 0 0 0-0.23-0.06 0.55 0.55 0 0 0-0.25 0.07 1.87 1.87 0 0 0-0.53 2 1.53 1.53 0 0 0 0.71 1 0.48 0.48 0 0 0 0.23 0 0.57 0.57 0 0 0 0.25-0.06 1.88 1.88 0 0 0 0.55-1.92zm0 0a1.93 1.93 0 0 0-0.29-0.65 1 1 0 0 0-0.42-0.38 0.53 0.53 0 0 0-0.23-0.06 0.55 0.55 0 0 0-0.25 0.07 1.87 1.87 0 0 0-0.53 2 1.53 1.53 0 0 0 0.71 1 0.48 0.48 0 0 0 0.23 0 0.57 0.57 0 0 0 0.25-0.06 1.88 1.88 0 0 0 0.55-1.92zm-4.91-1a0.55 0.55 0 0 0-0.25-0.07 0.53 0.53 0 0 0-0.23 0.06 1.47 1.47 0 0 0-0.7 1 1.88 1.88 0 0 0 0.52 2 0.61 0.61 0 0 0 0.25 0.06 0.52 0.52 0 0 0 0.24 0 1.49 1.49 0 0 0 0.7-1 1.88 1.88 0 0 0-0.51-2.05zm0 0a0.55 0.55 0 0 0-0.25-0.07 0.53 0.53 0 0 0-0.23 0.06 1.47 1.47 0 0 0-0.7 1 1.88 1.88 0 0 0 0.52 2 0.61 0.61 0 0 0 0.25 0.06 0.52 0.52 0 0 0 0.24 0 1.49 1.49 0 0 0 0.7-1 1.88 1.88 0 0 0-0.51-2.05zm4.91 1a1.93 1.93 0 0 0-0.29-0.65 1 1 0 0 0-0.42-0.38 0.53 0.53 0 0 0-0.23-0.06 0.55 0.55 0 0 0-0.25 0.07 1.87 1.87 0 0 0-0.53 2 1.53 1.53 0 0 0 0.71 1 0.48 0.48 0 0 0 0.23 0 0.57 0.57 0 0 0 0.25-0.06 1.88 1.88 0 0 0 0.55-1.92zm0 0a1.93 1.93 0 0 0-0.29-0.65 1 1 0 0 0-0.42-0.38 0.53 0.53 0 0 0-0.23-0.06 0.55 0.55 0 0 0-0.25 0.07 1.87 1.87 0 0 0-0.53 2 1.53 1.53 0 0 0 0.71 1 0.48 0.48 0 0 0 0.23 0 0.57 0.57 0 0 0 0.25-0.06 1.88 1.88 0 0 0 0.55-1.92zm-4.91-1a0.55 0.55 0 0 0-0.25-0.07 0.53 0.53 0 0 0-0.23 0.06 1.47 1.47 0 0 0-0.7 1 1.88 1.88 0 0 0 0.52 2 0.61 0.61 0 0 0 0.25 0.06 0.52 0.52 0 0 0 0.24 0 1.49 1.49 0 0 0 0.7-1 1.88 1.88 0 0 0-0.51-2.05zm0 0a0.55 0.55 0 0 0-0.25-0.07 0.53 0.53 0 0 0-0.23 0.06 1.47 1.47 0 0 0-0.7 1 1.88 1.88 0 0 0 0.52 2 0.61 0.61 0 0 0 0.25 0.06 0.52 0.52 0 0 0 0.24 0 1.49 1.49 0 0 0 0.7-1 1.88 1.88 0 0 0-0.51-2.05zm4.91 1a1.93 1.93 0 0 0-0.29-0.65 1 1 0 0 0-0.42-0.38 0.53 0.53 0 0 0-0.23-0.06 0.55 0.55 0 0 0-0.25 0.07 1.87 1.87 0 0 0-0.53 2 1.53 1.53 0 0 0 0.71 1 0.48 0.48 0 0 0 0.23 0 0.57 0.57 0 0 0 0.25-0.06 1.88 1.88 0 0 0 0.55-1.92zm0 0a1.93 1.93 0 0 0-0.29-0.65 1 1 0 0 0-0.42-0.38 0.53 0.53 0 0 0-0.23-0.06 0.55 0.55 0 0 0-0.25 0.07 1.87 1.87 0 0 0-0.53 2 1.53 1.53 0 0 0 0.71 1 0.48 0.48 0 0 0 0.23 0 0.57 0.57 0 0 0 0.25-0.06 1.88 1.88 0 0 0 0.55-1.92zm-4.91-1a0.55 0.55 0 0 0-0.25-0.07 0.53 0.53 0 0 0-0.23 0.06 1.47 1.47 0 0 0-0.7 1 1.88 1.88 0 0 0 0.52 2 0.61 0.61 0 0 0 0.25 0.06 0.52 0.52 0 0 0 0.24 0 1.49 1.49 0 0 0 0.7-1 1.88 1.88 0 0 0-0.51-2.05zm0 0a0.55 0.55 0 0 0-0.25-0.07 0.53 0.53 0 0 0-0.23 0.06 1.47 1.47 0 0 0-0.7 1 1.88 1.88 0 0 0 0.52 2 0.61 0.61 0 0 0 0.25 0.06 0.52 0.52 0 0 0 0.24 0 1.49 1.49 0 0 0 0.7-1 1.88 1.88 0 0 0-0.51-2.05zm4.91 1a1.93 1.93 0 0 0-0.29-0.65 1 1 0 0 0-0.42-0.38 0.53 0.53 0 0 0-0.23-0.06 0.55 0.55 0 0 0-0.25 0.07 1.87 1.87 0 0 0-0.53 2 1.53 1.53 0 0 0 0.71 1 0.48 0.48 0 0 0 0.23 0 0.57 0.57 0 0 0 0.25-0.06 1.88 1.88 0 0 0 0.55-1.92zm0 0a1.93 1.93 0 0 0-0.29-0.65 1 1 0 0 0-0.42-0.38 0.53 0.53 0 0 0-0.23-0.06 0.55 0.55 0 0 0-0.25 0.07 1.87 1.87 0 0 0-0.53 2 1.53 1.53 0 0 0 0.71 1 0.48 0.48 0 0 0 0.23 0 0.57 0.57 0 0 0 0.25-0.06 1.88 1.88 0 0 0 0.55-1.92zm-4.91-1a0.55 0.55 0 0 0-0.25-0.07 0.53 0.53 0 0 0-0.23 0.06 1.47 1.47 0 0 0-0.7 1 1.88 1.88 0 0 0 0.52 2 0.61 0.61 0 0 0 0.25 0.06 0.52 0.52 0 0 0 0.24 0 1.49 1.49 0 0 0 0.7-1 1.88 1.88 0 0 0-0.51-2.05zm0 0a0.55 0.55 0 0 0-0.25-0.07 0.53 0.53 0 0 0-0.23 0.06 1.47 1.47 0 0 0-0.7 1 1.88 1.88 0 0 0 0.52 2 0.61 0.61 0 0 0 0.25 0.06 0.52 0.52 0 0 0 0.24 0 1.49 1.49 0 0 0 0.7-1 1.88 1.88 0 0 0-0.51-2.05zm4.91 1a1.93 1.93 0 0 0-0.29-0.65 1 1 0 0 0-0.42-0.38 0.53 0.53 0 0 0-0.23-0.06 0.55 0.55 0 0 0-0.25 0.07 1.87 1.87 0 0 0-0.53 2 1.53 1.53 0 0 0 0.71 1 0.48 0.48 0 0 0 0.23 0 0.57 0.57 0 0 0 0.25-0.06 1.88 1.88 0 0 0 0.55-1.92zm0 0a1.93 1.93 0 0 0-0.29-0.65 1 1 0 0 0-0.42-0.38 0.53 0.53 0 0 0-0.23-0.06 0.55 0.55 0 0 0-0.25 0.07 1.87 1.87 0 0 0-0.53 2 1.53 1.53 0 0 0 0.71 1 0.48 0.48 0 0 0 0.23 0 0.57 0.57 0 0 0 0.25-0.06 1.88 1.88 0 0 0 0.55-1.92zm-4.91-1a0.55 0.55 0 0 0-0.25-0.07 0.53 0.53 0 0 0-0.23 0.06 1.47 1.47 0 0 0-0.7 1 1.88 1.88 0 0 0 0.52 2 0.61 0.61 0 0 0 0.25 0.06 0.52 0.52 0 0 0 0.24 0 1.49 1.49 0 0 0 0.7-1 1.88 1.88 0 0 0-0.51-2.05z" fill="url(#linear-gradient-41)"/>
  <path class="cls-45" d="m136.92 391.16v10.66h12v-10.66zm10.12 4a0.12 0.12 0 0 1 0 0.1 0.15 0.15 0 0 1 0 0.11l-0.64 0.63 0.53 0.53a0.12 0.12 0 0 1 0 0.1 0.15 0.15 0 0 1 0 0.11l-0.7 0.7a0.17 0.17 0 0 1-0.22 0l-1.52-1.53-2.18 2.09 1.53 1.52a0.16 0.16 0 0 1 0 0.11 0.12 0.12 0 0 1 0 0.1l-0.7 0.71a0.15 0.15 0 0 1-0.11 0 0.12 0.12 0 0 1-0.1 0l-0.53-0.53-0.63 0.64a0.15 0.15 0 0 1-0.11 0 0.13 0.13 0 0 1-0.1 0l-0.56-0.55-0.6 0.59a0.16 0.16 0 0 1-0.11 0 0.12 0.12 0 0 1-0.1 0l-1.36-1.35a0.15 0.15 0 0 1 0-0.21l0.6-0.6-0.57-0.57a0.16 0.16 0 0 1 0-0.11 0.12 0.12 0 0 1 0-0.1l0.63-0.64-0.52-0.52a0.16 0.16 0 0 1-0.05-0.11 0.12 0.12 0 0 1 0.05-0.1l0.7-0.71a0.21 0.21 0 0 1 0.11 0 0.18 0.18 0 0 1 0.1 0l1.53 1.53 2.17-2.17-1.58-1.51a0.13 0.13 0 0 1 0-0.1 0.15 0.15 0 0 1 0-0.11l0.71-0.7a0.14 0.14 0 0 1 0.1-0.05 0.16 0.16 0 0 1 0.11 0.05l0.52 0.52 0.64-0.63a0.14 0.14 0 0 1 0.1 0 0.16 0.16 0 0 1 0.11 0l0.57 0.57 0.6-0.6a0.13 0.13 0 0 1 0.1 0 0.15 0.15 0 0 1 0.11 0l1.35 1.36a0.12 0.12 0 0 1 0 0.1 0.16 0.16 0 0 1 0 0.11l-0.59 0.6z" fill="url(#linear-gradient-42)"/>
  <path class="cls-46" d="m182.15 425a2.62 2.62 0 0 0-2.62 2.62v0.2h5.23v-0.2a2.62 2.62 0 0 0-2.61-2.62zm-5.28 13.69v0.37h10.68v-0.37zm0 0v0.37h10.68v-0.37zm7.89-11.07a2.615 2.615 0 1 0-5.23 0v0.2h5.23zm-14.88-5.49v21.7h24.53v-21.7zm18.89 19.08a1.43 1.43 0 0 1-1 0.41h-11.25a1.41 1.41 0 0 1-1.41-1.4l0.54-12.08a0.33 0.33 0 0 1 0.33-0.32h2.88v-0.2a3.29 3.29 0 0 1 6.57 0v0.2h2.88a0.33 0.33 0 0 1 0.33 0.32l0.54 12.07a1.43 1.43 0 0 1-0.41 1.02zm-11.9-2.15h10.68v-0.37h-10.68zm7.89-11.44a2.615 2.615 0 1 0-5.23 0v0.2h5.23z" fill="url(#linear-gradient-43)"/>
 </g>
</svg>
